<?xml version="1.0" encoding="utf-8"?>
<!-- Generator: Adobe Illustrator 27.4.0, SVG Export Plug-In . SVG Version: 6.00 Build 0)  -->
<svg version="1.1" id="Calque_1" xmlns="http://www.w3.org/2000/svg" xmlns:xlink="http://www.w3.org/1999/xlink" x="0px" y="0px"
	 viewBox="0 0 504.5 139.8" style="enable-background:new 0 0 504.5 139.8;" xml:space="preserve">
<style type="text/css">
	.st0{fill:#FFFFFF;}
	.st1{fill:none;}
	.st2{fill:url(#SVGID_1_);}
	.st3{fill:url(#SVGID_00000057841349011844190540000017292573269008468620_);}
	.st4{fill:url(#SVGID_00000131342799123887525460000005605371216198298278_);}
</style>
<g>
	<path class="st0" d="M80.9,42.1h13.7l5.6,18.6c1.6,5.6,3.4,15.9,3.4,15.9h0.2c0,0,1.7-10.3,3.3-15.9l5.5-18.6h13.9v44.6H117v-20
		c0-5.6,0.7-16.1,0.7-16.1h-0.1c0,0-1.9,9.5-3.5,14.8l-6.4,21.2h-8.4L93,65.5c-1.6-5.3-3.5-14.8-3.5-14.8h-0.1
		c0,0,0.7,10.4,0.7,16.1v20h-9.2V42.1z"/>
	<path class="st0" d="M134,42.1h10.2V78h20.6v8.8H134V42.1z"/>
	<path class="st0" d="M167.7,70.8c0-9.6,6.7-16.9,16.9-16.9c10.1,0,16.8,7.3,16.8,16.9c0,9.5-6.7,16.9-16.8,16.9
		C174.5,87.7,167.7,80.3,167.7,70.8z M191.9,70.8c0-6.1-2.6-10.2-7.3-10.2c-4.8,0-7.3,4.1-7.3,10.2c0,6,2.5,10.1,7.3,10.1
		C189.3,80.9,191.9,76.8,191.9,70.8z"/>
	<path class="st0" d="M204.7,70.7c0-9.8,5.5-16.9,13.8-16.9c4.4,0,7.3,2,9.5,5.3h0.1c-0.1-2-0.2-4.7-0.2-7.4v-9.8h9.4v44.6h-9.1V82
		h-0.1c-1.9,3.9-5.4,5.7-9.7,5.7C210.1,87.7,204.7,81.3,204.7,70.7z M228.2,70.7c0-5.6-2.3-9.7-7.2-9.7c-4.4,0-6.7,4-6.7,9.7
		c0,5.8,2.2,9.5,6.6,9.5C225.5,80.2,228.2,76.3,228.2,70.7z"/>
	<path class="st0" d="M244.2,42.1h10.3v44.6h-10.3V42.1z"/>
	<path class="st0" d="M340.4,82.8h-0.1c-2.1,2.9-4.7,4.7-9.7,4.7c-6.3,0-10.9-3.4-10.9-9.7c0-7.1,5.6-8.9,12.5-9.7
		c5.7-0.8,8-1.7,8-4.1c0-2.3-1.5-3.8-4.7-3.8c-3.6,0-5.3,1.7-5.6,4.2h-8.7c0.2-5.5,4.7-10.6,14.2-10.6c4.1,0,7,0.6,9.2,1.9
		c3.3,1.9,4.9,5.2,4.9,9.5v16.4c0,2.5,0.4,3.9,1.2,4.4v0.5h-9.2C341,86,340.6,84.6,340.4,82.8z M340.5,75.2v-4.1
		c-1.4,0.8-3.4,1.3-5.5,1.8c-4.1,0.9-6.1,1.9-6.1,4.7c0,2.8,2.1,3.8,4.7,3.8C337.7,81.4,340.5,78.7,340.5,75.2z"/>
	<path class="st0" d="M355.3,87.8h9.2c0.6,1.9,2.4,3.2,6.1,3.2c4.4,0,6.7-2.3,6.7-6.2v-0.7c0-1.6,0.1-3.1,0.2-4.2h-0.2
		c-1.9,3.1-4.7,4.7-8.6,4.7c-7.4,0-13.9-5.5-13.9-15.1c0-9.3,5.6-15.7,13.4-15.7c4.3,0,7.4,1.4,9.2,5h0.1v-4.1h9v29.1
		c0,4.7-1.6,8.2-4.1,10.4c-2.8,2.4-6.8,3.5-11.5,3.5C361.9,97.8,356.2,94.1,355.3,87.8z M377.5,69.3c0-4.7-2.3-8.3-7-8.3
		c-4.1,0-6.7,3.2-6.7,8.3c0,5,2.6,8.3,6.8,8.3C375.4,77.6,377.5,74,377.5,69.3z"/>
	<path class="st0" d="M391.1,70.8c0-9.6,6.7-16.9,16.4-16.9c4.6,0,8.2,1.5,11,4.1c3.6,3.5,5.2,8.9,5.2,15.2h-23.3
		c0.6,4.8,3.2,7.7,7.7,7.7c2.9,0,4.8-1.1,5.8-3.1h9.1c-1.6,5.6-6.8,10-15.1,10C397.5,87.7,391.1,80.3,391.1,70.8z M400.4,67.7H414
		c-0.3-4.4-2.8-7.1-6.5-7.1C403.1,60.5,401,63.3,400.4,67.7z"/>
	<g>
		<line class="st1" x1="268.9" y1="54.6" x2="268.9" y2="73.5"/>

			<linearGradient id="SVGID_1_" gradientUnits="userSpaceOnUse" x1="268.95" y1="775.5236" x2="268.95" y2="756.5781" gradientTransform="matrix(1 0 0 1 0 -702)">
			<stop  offset="0" style="stop-color:#FDC533"/>
			<stop  offset="0" style="stop-color:#F4971B"/>
			<stop  offset="0.3211" style="stop-color:#F7A722"/>
			<stop  offset="1" style="stop-color:#FDC332"/>
		</linearGradient>
		<path class="st2" d="M273.5,73.5h-5.2c-2.2,0-3.9-1.8-3.9-3.9v-15h3.8c3,0,5.3,2.4,5.3,5.3L273.5,73.5L273.5,73.5z"/>
	</g>
	<g>
		<line class="st1" x1="286.8" y1="54.4" x2="286.8" y2="82.2"/>

			<linearGradient id="SVGID_00000117676750826184008890000002061029329483688881_" gradientUnits="userSpaceOnUse" x1="286.8" y1="784.1596" x2="286.8" y2="756.4047" gradientTransform="matrix(1 0 0 1 0 -702)">
			<stop  offset="0" style="stop-color:#FDC533"/>
			<stop  offset="0" style="stop-color:#F4971B"/>
			<stop  offset="0.3211" style="stop-color:#F7A722"/>
			<stop  offset="1" style="stop-color:#FDC332"/>
		</linearGradient>
		<path style="fill:url(#SVGID_00000117676750826184008890000002061029329483688881_);" d="M291.5,82.2h-5.4c-2.3,0-4.1-1.8-4.1-4.1
			V54.4h4c3.1,0,5.6,2.5,5.6,5.6v22.2H291.5z"/>
	</g>
	<g>
		<line class="st1" x1="304.3" y1="54.4" x2="304.3" y2="86.7"/>

			<linearGradient id="SVGID_00000026133240737058762660000005753251954662820283_" gradientUnits="userSpaceOnUse" x1="297.6145" y1="786.2573" x2="310.7336" y2="759.3591" gradientTransform="matrix(1 0 0 1 0 -702)">
			<stop  offset="0" style="stop-color:#FDC533"/>
			<stop  offset="0" style="stop-color:#F4971B"/>
			<stop  offset="0.3211" style="stop-color:#F7A722"/>
			<stop  offset="1" style="stop-color:#FDC332"/>
		</linearGradient>
		<path style="fill:url(#SVGID_00000026133240737058762660000005753251954662820283_);" d="M309,86.7h-5.4c-2.3,0-4.1-1.8-4.1-4.1
			V54.4h4c3.1,0,5.6,2.5,5.6,5.6v26.7H309z"/>
	</g>
</g>
</svg>
